<?xml version="1.0" encoding="UTF-8" standalone="no"?>
<!DOCTYPE svg PUBLIC "-//W3C//DTD SVG 1.1//EN" "http://www.w3.org/Graphics/SVG/1.1/DTD/svg11.dtd">
<svg width="100%" height="100%" viewBox="0 0 2099 522" version="1.1" xmlns="http://www.w3.org/2000/svg" xmlns:xlink="http://www.w3.org/1999/xlink" xml:space="preserve" xmlns:serif="http://www.serif.com/" style="fill-rule:evenodd;clip-rule:evenodd;stroke-linejoin:round;stroke-miterlimit:2;">
    <g transform="matrix(1,0,0,1,-543.597,-979.522)">
        <g transform="matrix(1,0,0,1,168.189,212.643)">
            <g transform="matrix(300,0,0,300,1271.56,1133.41)">
                <path d="M0.188,-0L0.188,-0.122L0.354,-0.122C0.384,-0.122 0.408,-0.131 0.426,-0.149C0.443,-0.167 0.452,-0.189 0.452,-0.215C0.452,-0.233 0.448,-0.249 0.44,-0.263C0.432,-0.277 0.421,-0.288 0.406,-0.296C0.392,-0.304 0.374,-0.308 0.354,-0.308L0.188,-0.308L0.188,-0.427L0.341,-0.427C0.367,-0.427 0.388,-0.434 0.404,-0.447C0.42,-0.46 0.428,-0.479 0.428,-0.506C0.428,-0.532 0.42,-0.552 0.404,-0.565C0.388,-0.578 0.367,-0.584 0.341,-0.584L0.188,-0.584L0.188,-0.706L0.371,-0.706C0.416,-0.706 0.454,-0.698 0.486,-0.681C0.518,-0.664 0.542,-0.642 0.559,-0.614C0.576,-0.586 0.584,-0.555 0.584,-0.521C0.584,-0.477 0.57,-0.441 0.542,-0.411C0.514,-0.381 0.472,-0.36 0.418,-0.349L0.422,-0.402C0.481,-0.39 0.527,-0.367 0.56,-0.333C0.592,-0.298 0.608,-0.255 0.608,-0.205C0.608,-0.166 0.598,-0.131 0.579,-0.1C0.56,-0.069 0.533,-0.045 0.497,-0.027C0.461,-0.009 0.419,-0 0.369,-0L0.188,-0ZM0.068,-0L0.068,-0.706L0.223,-0.706L0.223,-0L0.068,-0Z" style="fill:rgb(241,245,249);fill-rule:nonzero;"/>
            </g>
            <g transform="matrix(300,0,0,300,1463.71,1133.41)">
                <path d="M0.015,-0L0.295,-0.706L0.437,-0.706L0.714,-0L0.548,-0L0.336,-0.586L0.393,-0.586L0.178,-0L0.015,-0ZM0.174,-0.128L0.174,-0.256L0.559,-0.256L0.559,-0.128L0.174,-0.128Z" style="fill:rgb(241,245,249);fill-rule:nonzero;"/>
            </g>
            <g transform="matrix(300,0,0,300,1647.46,1133.41)">
                <path d="M0.241,-0L0.241,-0.696L0.398,-0.696L0.398,-0L0.241,-0ZM0.02,-0.569L0.02,-0.706L0.619,-0.706L0.619,-0.569L0.02,-0.569Z" style="fill:rgb(241,245,249);fill-rule:nonzero;"/>
            </g>
            <g transform="matrix(300,0,0,300,1839.16,1133.41)">
                <path d="M0.068,-0L0.068,-0.706L0.225,-0.706L0.225,-0L0.068,-0ZM0.189,-0L0.189,-0.138L0.538,-0.138L0.538,-0L0.189,-0Z" style="fill:rgb(241,245,249);fill-rule:nonzero;"/>
            </g>
            <g transform="matrix(300,0,0,300,2007.46,1133.41)">
                <rect x="0.068" y="-0.706" width="0.158" height="0.706" style="fill:rgb(241,245,249);fill-rule:nonzero;"/>
            </g>
            <g transform="matrix(300,0,0,300,2095.21,1133.41)">
                <path d="M0.068,-0L0.068,-0.706L0.225,-0.706L0.225,-0L0.068,-0ZM0.188,-0.277L0.188,-0.412L0.541,-0.412L0.541,-0.277L0.188,-0.277ZM0.188,-0.571L0.188,-0.706L0.557,-0.706L0.557,-0.571L0.188,-0.571Z" style="fill:rgb(241,245,249);fill-rule:nonzero;"/>
            </g>
            <g transform="matrix(300,0,0,300,2272.21,1133.41)">
                <path d="M0.285,-0.263L0.013,-0.706L0.195,-0.706L0.404,-0.348L0.287,-0.348L0.496,-0.706L0.674,-0.706L0.4,-0.263L0.285,-0.263ZM0.266,-0L0.266,-0.335L0.423,-0.335L0.423,-0L0.266,-0Z" style="fill:rgb(241,245,249);fill-rule:nonzero;"/>
            </g>
        </g>
        <g id="mark_simple_color_light.svg" transform="matrix(0.581776,0,0,0.581776,933.678,1240.16)">
            <g transform="matrix(1,0,0,1,-670.5,-448)">
                <clipPath id="_clip1">
                    <rect x="0" y="0" width="1341" height="896"/>
                </clipPath>
                <g clip-path="url(#_clip1)">
                    <g id="Simple-logo" serif:id="Simple logo" transform="matrix(1,0,0,1,-558.223,-1306.4)">
                        <g>
                            <g id="Pravá-strana" serif:id="Pravá strana" transform="matrix(-1,0,0,1,2457.11,0)">
                                <path id="Křídlo2-2" serif:id="Křídlo2 2" d="M893.161,1815.79C1016.08,1777.54 1131.63,1814.28 1228.56,2044.46L1228.56,2201.47C1169.03,2180.69 1031.09,2122.99 890.8,1961.88C864.09,1927.12 822.013,1897.16 774.79,1874.1C828.638,1842.14 893.161,1815.79 893.161,1815.79Z" style="fill:rgb(37,99,235);"/>
                                <path id="Křídlo2-1" serif:id="Křídlo2 1" d="M774.79,1874.1C702.427,1838.77 617.98,1819.63 558.223,1824.18C558.379,1823.72 558.534,1823.26 558.691,1822.8C597.065,1709.13 669.5,1596.61 742.576,1505.03C821.708,1405.86 901.591,1331.26 939.795,1306.4C928.743,1341.12 919.883,1375.73 912.955,1413.73C902.136,1473.07 896.031,1540.67 893.649,1629.83C892.225,1683.15 892.133,1744.19 893.161,1815.79C893.161,1815.79 828.638,1842.14 774.79,1874.1Z" style="fill:rgb(59,130,246);"/>
                                <g id="Křídlo1" transform="matrix(1,0,0,1,0.323165,-0.196668)">
                                    <path d="M1228.23,1753.92L1228.23,1948.99C1182,1818.5 1047.45,1740.68 937.543,1766.85C930.994,1727.53 935.309,1554.2 958.252,1439.49C987.575,1506.18 1013.54,1567.11 1079.47,1605.33C1163.18,1653.84 1193.12,1690.19 1228.23,1753.92Z" style="fill:rgb(226,232,240);"/>
                                </g>
                                <path id="Hlava" d="M1145.67,1418.7L1187.11,1513.19L1228.56,1513.19L1228.56,1619.49C1225.15,1617.43 1221.01,1615.06 1216.39,1612.54L1201.96,1626.98L1163.49,1588.51C1156.85,1586.29 1150.74,1584.73 1145.67,1584.16L1145.67,1418.7Z" style="fill:rgb(203,213,225);"/>
                            </g>
                            <g id="Levá-strana" serif:id="Levá strana">
                                <path id="Křídlo2-21" serif:id="Křídlo2 2" d="M893.161,1815.79C1016.08,1777.54 1131.63,1814.28 1228.56,2044.46L1228.56,2201.47C1169.03,2180.69 1031.09,2122.99 890.8,1961.88C864.09,1927.12 822.013,1897.16 774.79,1874.1C828.638,1842.14 893.161,1815.79 893.161,1815.79Z" style="fill:rgb(59,130,246);"/>
                                <path id="Křídlo2-11" serif:id="Křídlo2 1" d="M774.79,1874.1C702.427,1838.77 617.98,1819.63 558.223,1824.18C558.379,1823.72 558.534,1823.26 558.691,1822.8C597.065,1709.13 669.5,1596.61 742.576,1505.03C821.708,1405.86 901.591,1331.26 939.795,1306.4C928.743,1341.12 919.883,1375.73 912.955,1413.73C902.136,1473.07 896.031,1540.67 893.649,1629.83C892.225,1683.15 892.133,1744.19 893.161,1815.79C893.161,1815.79 828.638,1842.14 774.79,1874.1Z" style="fill:rgb(96,165,250);"/>
                                <g id="Křídlo11" serif:id="Křídlo1" transform="matrix(1,0,0,1,0.323165,-0.196668)">
                                    <path d="M1228.23,1753.92L1228.23,1948.99C1182,1818.5 1047.45,1740.68 937.543,1766.85C930.994,1727.53 935.309,1554.2 958.252,1439.49C987.575,1506.18 1013.54,1567.11 1079.47,1605.33C1163.18,1653.84 1193.12,1690.19 1228.23,1753.92Z" style="fill:rgb(241,245,249);"/>
                                </g>
                                <path id="Hlava1" serif:id="Hlava" d="M1145.67,1418.7L1187.11,1513.19L1228.56,1513.19L1228.56,1619.49C1225.15,1617.43 1221.01,1615.06 1216.39,1612.54L1201.96,1626.98L1163.49,1588.51C1156.85,1586.29 1150.74,1584.73 1145.67,1584.16L1145.67,1418.7Z" style="fill:rgb(226,232,240);"/>
                            </g>
                        </g>
                    </g>
                </g>
            </g>
        </g>
    </g>
</svg>
